<?xml version="1.0" encoding="utf-8"?>
<!-- Generator: Adobe Illustrator 16.0.0, SVG Export Plug-In . SVG Version: 6.00 Build 0)  -->
<!DOCTYPE svg PUBLIC "-//W3C//DTD SVG 1.1//EN" "http://www.w3.org/Graphics/SVG/1.1/DTD/svg11.dtd">
<svg version="1.1" id="Layer_1" xmlns="http://www.w3.org/2000/svg" xmlns:xlink="http://www.w3.org/1999/xlink" x="0px" y="0px"
	 width="363px" height="360px" viewBox="0 0 363 360" enable-background="new 0 0 363 360" xml:space="preserve">
<g>
	<path d="M77.591,254.996c11.04,47.104-6.992,77.647-26.864,89.791c-13.248,8.096-30.912,5.521-36.432-8.096
		c-4.416-12.512,3.312-22.815,13.984-28.704c17.664-7.359,39.375-27.231,43.791-52.255c-10.304,2.943-21.343,5.52-32.751,8.464
		c-2.576,4.784-6.256,7.359-9.936,8.096l-18.768-44.527c15.824,0,39.008-1.104,66.239-2.944v-36.431H27.176l-2.944-10.304h52.623
		v-33.855l33.855,2.944c-2.943-4.416-3.312-10.672-3.312-19.872V97.494H89.735c-10.672,32.751-31.279,55.199-79.119,67.711
		l-4.048-5.152c27.6-13.248,38.271-36.063,42.32-62.559H12.456L9.512,87.19h65.503V51.862h-51.52l-2.944-10.304h54.463V5.127
		l47.84,4.048c-0.736,4.416-2.944,7.36-10.304,8.464v23.92h15.455l17.664-21.344c0,0,20.607,14.72,33.12,25.76
		c-1.104,4.048-4.784,5.888-9.568,5.888h-56.671V87.19h23.184l18.768-24.656c0,0,20.976,16.928,33.488,29.072
		c-0.736,4.048-4.417,5.888-9.568,5.888h-36.432v3.312v21.344c0,3.68,0.735,5.152,4.416,5.152h6.256c2.576,0,4.784,0,6.624-0.368
		c1.472,0,4.416,0,6.256-0.368c1.84,0,5.151-0.736,6.992-1.472h3.312l1.84,0.736c8.464,2.944,11.408,6.256,11.408,11.776
		c0,11.776-9.936,16.56-41.583,16.56h-13.983c-5.152,0-9.568-0.368-12.88-1.104c-1.104,1.104-2.944,1.84-5.888,2.208v22.815h16.191
		l17.664-20.976c0,0,19.504,14.72,31.279,25.392c-0.736,4.048-4.416,5.888-9.2,5.888h-55.935v34.224
		c21.711-1.841,45.263-4.049,68.079-6.625l0.368,5.152c-27.232,10.304-61.824,21.712-107.455,33.855H77.591z M119.542,261.252
		c83.536,43.424,37.536,111.135,5.521,75.439c2.943-25.023-2.576-52.623-9.2-73.6L119.542,261.252z M349.172,224.453
		c5.52,9.199,7.729,19.504,4.416,27.967c-6.992,15.824-25.76,11.408-37.168,3.313c-36.432-27.968-39.375-90.159-39.375-176.271
		h-20.607c-1.104,23.92-3.313,45.632-7.729,66.24c48.943,40.111,26.863,85.375-4.416,64.767c-2.207-7.729-5.52-15.456-9.568-23.552
		c-13.615,28.336-35.695,52.624-72.126,72.128l-4.416-5.152c32.015-29.072,46.736-62.928,54.095-102.671
		c-9.568-12.88-19.504-24.656-28.335-34.591l3.679-2.576c10.305,3.312,19.504,7.36,27.969,11.408
		c1.473-14.352,2.207-29.808,2.576-46H184.31l-3.312-10.304h37.535c0-19.136,0-39.008,0-60.352l51.52,4.784
		c-0.736,5.152-4.047,8.464-12.143,9.568c-0.369,15.824-0.736,31.28-1.105,46h15.457l18.031-22.448l37.904,30.176
		c-2.576,2.944-5.889,4.784-13.248,5.888c-1.104,62.191,0.736,113.343,17.295,131.743c2.209,2.576,4.049,2.576,5.889-1.472
		c3.313-6.992,7.729-19.872,10.672-30.544l3.68,0.736L349.172,224.453z M194.246,259.78c94.574,36.063,55.936,109.295,20.977,77.279
		c0-25.392-11.777-54.831-24.289-75.071L194.246,259.78z M266.373,255.732c115.551,32.384,79.488,121.07,37.168,88.319
		c-3.313-30.176-21.713-63.664-40.48-86.111L266.373,255.732z"/>
</g>
</svg>
