<?xml version="1.0" encoding="utf-8"?>
<!-- Generator: Adobe Illustrator 16.0.0, SVG Export Plug-In . SVG Version: 6.00 Build 0)  -->
<!DOCTYPE svg PUBLIC "-//W3C//DTD SVG 1.1//EN" "http://www.w3.org/Graphics/SVG/1.1/DTD/svg11.dtd">
<svg version="1.1" id="Layer_1" xmlns="http://www.w3.org/2000/svg" xmlns:xlink="http://www.w3.org/1999/xlink" x="0px" y="0px"
	 width="363px" height="360px" viewBox="0 0 363 360" enable-background="new 0 0 363 360" xml:space="preserve">
<g>
	<path d="M40.111,76.491c15.824,40.847,13.248,73.231,3.313,89.423c-7.36,11.04-24.288,13.248-32.016,2.944
		c-5.889-9.2-1.84-20.24,6.624-27.6c9.199-11.408,18.768-40.111,16.56-64.767H40.111z M99.727,72.442
		c68.447,33.12,36.432,85.007,11.04,60.352c0.736-18.768-6.991-41.952-14.352-56.671v263.485c0,4.049-16.928,12.145-32.752,12.145
		h-8.096V6.571l54.464,5.52c-0.736,5.152-3.313,8.832-13.616,10.304v51.888L99.727,72.442z M295.869,154.138l41.216,30.912
		c-2.208,2.944-7.36,6.256-15.088,7.728v108.559c0,27.232-5.889,42.688-50.784,46.367c-1.104-12.512-2.575-22.079-7.359-27.967
		c-4.784-5.889-11.776-10.305-26.864-12.881v-5.151c0,0,30.544,2.208,37.536,2.208c5.151,0,6.992-2.576,6.992-6.992v-27.231h-87.951
		c-3.681,30.544-17.664,62.191-65.136,83.167l-2.944-3.68c26.864-28.336,28.704-65.504,28.704-103.775v-86.847l47.104,16.928h76.543
		L295.869,154.138z M320.156,109.978c0,0,25.024,19.504,39.744,33.12c-0.736,4.048-4.416,5.888-9.936,5.888H131.742l-2.943-10.672
		h85.375V104.09h-60.352l-2.943-10.672h63.295V61.035h-72.863l-2.944-10.304h75.808V6.203l54.096,4.784
		c-0.736,4.784-3.313,8.096-12.145,9.568v30.176h32.016l21.712-28.336c0,0,25.024,19.136,39.744,32.751
		c-1.104,4.048-4.784,5.888-9.937,5.888h-83.535v32.384h24.288l20.24-25.76c0,0,23.184,17.664,37.167,30.543
		c-1.104,4.048-4.784,5.888-9.936,5.888h-71.76v34.224h41.584L320.156,109.978z M281.518,259.017v-31.28H194.67v17.297
		c0,4.783,0,9.199-0.368,13.983H281.518z M194.67,185.785v31.648h86.848v-31.648H194.67z"/>
</g>
</svg>
