<?xml version="1.0" encoding="iso-8859-1"?>
<!-- Generator: Adobe Illustrator 19.0.0, SVG Export Plug-In . SVG Version: 6.00 Build 0)  -->
<svg version="1.1" id="Capa_1" xmlns="http://www.w3.org/2000/svg" xmlns:xlink="http://www.w3.org/1999/xlink" x="0px" y="0px"
	 viewBox="0 0 512 512" style="enable-background:new 0 0 512 512;" xml:space="preserve">
<g>
	<g>
		<path d="M0,0v512h512V0H0z M482,482H30V30h452V482z"/>
	</g>
</g>
<g>
	<g>
		<path d="M199.902,181.6h-29.28L105.582,352h34.08l15.6-42.48h59.52l15.84,42.48h34.08L199.902,181.6z M160.782,286.24l24.48-66.96
			l23.52,66.96H160.782z"/>
	</g>
</g>
<g>
	<g>
		<path d="M359.261,224.08c-31.428,0-45.281,17.441-49.92,25.44v-23.28h-29.04V352h32.16v-73.44
			c1.118-3.84,10.872-26.16,32.64-26.16c12.066,0,19.92,8.933,19.92,29.04V352h32.16v-78.48
			C397.181,248.333,389.833,224.08,359.261,224.08z"/>
	</g>
</g>
<g>
</g>
<g>
</g>
<g>
</g>
<g>
</g>
<g>
</g>
<g>
</g>
<g>
</g>
<g>
</g>
<g>
</g>
<g>
</g>
<g>
</g>
<g>
</g>
<g>
</g>
<g>
</g>
<g>
</g>
</svg>
