<?xml version="1.0" encoding="utf-8"?>
<!-- Generator: Adobe Illustrator 16.0.0, SVG Export Plug-In . SVG Version: 6.00 Build 0)  -->
<!DOCTYPE svg PUBLIC "-//W3C//DTD SVG 1.1//EN" "http://www.w3.org/Graphics/SVG/1.1/DTD/svg11.dtd">
<svg version="1.1" id="Layer_1" xmlns="http://www.w3.org/2000/svg" xmlns:xlink="http://www.w3.org/1999/xlink" x="0px" y="0px"
	 width="114.844px" height="114.813px" viewBox="0 0 114.844 114.813" enable-background="new 0 0 114.844 114.813"
	 xml:space="preserve">
<path fill="#FFFFFF" d="M109.264,54.785c0,27.914-22.63,50.542-50.542,50.542c-27.914,0-50.542-22.628-50.542-50.542"/>
<path fill="#EF5252" d="M8.18,56.096c0-27.911,22.627-50.542,50.542-50.542c27.911,0,50.542,22.63,50.542,50.542"/>
<circle fill="none" stroke="#000000" stroke-width="5.5" stroke-miterlimit="10" cx="57.044" cy="56.096" r="50.542"/>
<circle fill="#FFFFFF" stroke="#000000" stroke-width="5.5" stroke-miterlimit="10" cx="57.044" cy="56.096" r="12.133"/>
<circle fill="none" stroke="#000000" stroke-width="3" stroke-miterlimit="10" cx="57.044" cy="56.097" r="5.493"/>
<line fill="none" stroke="#000000" stroke-width="5.5" stroke-miterlimit="10" x1="6.502" y1="56.096" x2="46.027" y2="56.096"/>
<line fill="none" stroke="#000000" stroke-width="5.5" stroke-miterlimit="10" x1="68.678" y1="56.096" x2="107.586" y2="56.096"/>
<path fill="none" stroke="#FFFFFF" stroke-width="6" stroke-linecap="round" stroke-miterlimit="10" d="M23.262,32.833
	c-2.211,2.565-4.062,5.505-5.228,8.841"/>
<path fill="none" stroke="#FFFFFF" stroke-width="6" stroke-linecap="round" stroke-miterlimit="10" d="M46.835,15.483
	c0,0-10.925,1.604-18.138,10.758"/>
</svg>
